<?xml version="1.0" encoding="UTF-8" standalone="no"?>
<!-- Created with Inkscape (http://www.inkscape.org/) -->

<svg
   width="16"
   height="16"
   viewBox="0 0 4.2333333 4.2333333"
   version="1.1"
   id="svg8"
   inkscape:version="1.1 (c68e22c387, 2021-05-23)"
   sodipodi:docname="logo.svg"
   xmlns:inkscape="http://www.inkscape.org/namespaces/inkscape"
   xmlns:sodipodi="http://sodipodi.sourceforge.net/DTD/sodipodi-0.dtd"
   xmlns="http://www.w3.org/2000/svg"
   xmlns:svg="http://www.w3.org/2000/svg"
   xmlns:rdf="http://www.w3.org/1999/02/22-rdf-syntax-ns#"
   xmlns:cc="http://creativecommons.org/ns#"
   xmlns:dc="http://purl.org/dc/elements/1.1/">
  <defs
     id="defs2" />
  <sodipodi:namedview
     id="base"
     pagecolor="#ffffff"
     bordercolor="#666666"
     borderopacity="1.0"
     inkscape:pageopacity="0.0"
     inkscape:pageshadow="2"
     inkscape:zoom="13.132299"
     inkscape:cx="14.582367"
     inkscape:cy="14.125478"
     inkscape:document-units="mm"
     inkscape:current-layer="layer1"
     showgrid="false"
     units="px"
     inkscape:window-width="1920"
     inkscape:window-height="1001"
     inkscape:window-x="-9"
     inkscape:window-y="-9"
     inkscape:window-maximized="1"
     inkscape:pagecheckerboard="0" />
  <metadata
     id="metadata5">
    <rdf:RDF>
      <cc:Work
         rdf:about="">
        <dc:format>image/svg+xml</dc:format>
        <dc:type
           rdf:resource="http://purl.org/dc/dcmitype/StillImage" />
        <dc:title />
      </cc:Work>
    </rdf:RDF>
  </metadata>
  <g
     inkscape:label="Layer 1"
     inkscape:groupmode="layer"
     id="layer1"
     transform="translate(0,-292.76667)">
    <path
       style="opacity:1;fill:#000080;fill-opacity:1;stroke:none;stroke-width:3.77952766;stroke-linecap:round;stroke-linejoin:round;stroke-miterlimit:4;stroke-dasharray:none;stroke-dashoffset:52.91338348;stroke-opacity:1;paint-order:normal"
       d="M -1.5898438 -5.7773438 L -2.296875 -5.0703125 L 2.7734375 0 L 0 0 L 0 16 L 16 16 L 16 0 L 6.7734375 0 L 11.845703 -5.0703125 L 11.138672 -5.7773438 L 5.359375 0 L 4.1894531 0 L -1.5898438 -5.7773438 z M 2 2 L 14 2 L 14 14 L 2 14 L 2 2 z "
       transform="matrix(0.26458333,0,0,0.26458333,0,292.76667)"
       id="rect841" />
    <g
       aria-label="VideoP"
       transform="scale(0.96146759,1.0400767)"
       style="font-style:normal;font-variant:normal;font-weight:bold;font-stretch:normal;font-size:3.97968602px;line-height:1.25;font-family:'Script MT Bold';-inkscape-font-specification:'Script MT Bold, Bold';font-variant-ligatures:normal;font-variant-caps:normal;font-variant-numeric:normal;font-feature-settings:normal;text-align:start;letter-spacing:0px;word-spacing:0px;writing-mode:lr-tb;text-anchor:start;fill:#000000;fill-opacity:1;stroke:none;stroke-width:0.26458335"
       id="text839">
      <path
         d="m 6.9083708,282.26639 q 0.062183,0 0.1263084,0.19044 0.064126,0.19043 0.064126,0.39447 0,0.45276 -0.2020934,1.00464 -0.2001502,0.54992 -0.5149496,0.88804 -0.3128562,0.33618 -0.6509741,0.33618 -0.273992,0 -0.4469374,-0.19433 -0.1710021,-0.19432 -0.1710021,-0.50717 0,-0.29343 0.2118095,-0.85501 0.1943206,-0.53438 0.1943206,-0.76368 0,-0.15157 -0.058296,-0.23513 -0.058296,-0.0836 -0.1612861,-0.0836 -0.1593429,0 -0.3011969,0.17878 -0.1399109,0.17683 -0.1399109,0.38086 0,0.16518 0.085501,0.24679 0.085501,0.0797 0.085501,0.12048 0,0.07 -0.085501,0.16323 -0.083558,0.0913 -0.1496269,0.0913 -0.081615,0 -0.1515701,-0.11076 -0.069955,-0.11271 -0.069955,-0.25068 0,-0.35366 0.2526168,-0.67623 0.25456,-0.32257 0.5946211,-0.32257 0.2603896,0 0.4158461,0.19626 0.1573997,0.19432 0.1573997,0.52272 0,0.15157 -0.038864,0.34201 -0.038864,0.19043 -0.1904342,0.5985 -0.1496268,0.40613 -0.1496268,0.616 0,0.13797 0.079671,0.2293 0.081615,0.0894 0.2040367,0.0894 0.1865477,0 0.3905844,-0.22153 0.2040366,-0.22347 0.3381178,-0.57713 0.1340813,-0.35561 0.1340813,-0.68595 0,-0.31286 -0.1904342,-0.67624 -0.060239,-0.10882 -0.060239,-0.15157 0,-0.0738 0.1690589,-0.17489 0.1710021,-0.10299 0.2292983,-0.10299 z"
         style="font-style:normal;font-variant:normal;font-weight:bold;font-stretch:normal;font-size:3.97968602px;font-family:'Script MT Bold';-inkscape-font-specification:'Script MT Bold, Bold';font-variant-ligatures:normal;font-variant-caps:normal;font-variant-numeric:normal;font-feature-settings:normal;text-align:start;writing-mode:lr-tb;text-anchor:start;fill:#ffffff;stroke-width:0.26458335"
         id="path889" />
      <path
         d="m 8.1014993,282.62783 q 0,0.46637 -0.3439474,0.46637 -0.1671158,0 -0.2856513,-0.10105 0.1127059,-0.171 0.1748885,-0.38475 0.1535133,0.0952 0.2467872,0.0952 0.1049331,0 0.207923,-0.0758 z m 0.038864,1.97818 q -0.4547103,0.47803 -0.6801222,0.47803 -0.1243651,0 -0.2098662,-0.12631 -0.085501,-0.12825 -0.085501,-0.32063 0,-0.4139 0.2798217,-1.14649 L 7.93827,283.38762 h 0.023319 l -0.1943206,0.60823 q -0.1204788,0.37698 -0.1204788,0.53826 0,0.0641 0.027205,0.10494 0.029148,0.0389 0.071899,0.0389 0.075785,0 0.1515701,-0.0544 0.077728,-0.0563 0.2429008,-0.24096 z"
         style="font-style:normal;font-variant:normal;font-weight:bold;font-stretch:normal;font-size:3.97968602px;font-family:'Script MT Bold';-inkscape-font-specification:'Script MT Bold, Bold';font-variant-ligatures:normal;font-variant-caps:normal;font-variant-numeric:normal;font-feature-settings:normal;text-align:start;writing-mode:lr-tb;text-anchor:start;fill:#ffffff;stroke-width:0.26458335"
         id="path891" />
      <path
         d="m 10.215707,284.60601 q -0.2798212,0.27788 -0.4275049,0.37698 -0.1457404,0.0972 -0.2584464,0.0972 -0.1379676,0 -0.2195823,-0.13409 -0.079671,-0.13408 -0.081615,-0.39252 -0.1593429,0.25844 -0.3478339,0.39252 -0.1865478,0.13409 -0.3381179,0.13409 -0.1651725,0 -0.2914809,-0.15546 -0.1263084,-0.1574 -0.1263084,-0.36727 0,-0.43333 0.3147994,-0.80254 0.3167426,-0.37115 0.6801221,-0.37115 0.1010468,0 0.1573997,0.0291 0.058296,0.0292 0.1263084,0.0991 l 0.2778785,-1.16204 q 0.3400612,-0.0797 0.4585962,-0.0797 0.03886,0 0.03886,0.0311 0,0.0214 -0.09716,0.40224 -0.388641,1.52348 -0.388641,1.83828 0,0.0738 0.031091,0.11853 0.031091,0.0447 0.081615,0.0447 0.1243652,0 0.410016,-0.32258 z M 8.8107695,284.709 q 0.1904342,0 0.3556067,-0.32257 0.1651725,-0.32257 0.1651725,-0.60434 0,-0.11465 -0.052467,-0.18266 -0.050523,-0.068 -0.1340812,-0.068 -0.1807181,0 -0.3497771,0.33812 -0.1690589,0.33617 -0.1690589,0.60822 0,0.10688 0.04858,0.16906 0.050523,0.0622 0.1360244,0.0622 z"
         style="font-style:normal;font-variant:normal;font-weight:bold;font-stretch:normal;font-size:3.97968602px;font-family:'Script MT Bold';-inkscape-font-specification:'Script MT Bold, Bold';font-variant-ligatures:normal;font-variant-caps:normal;font-variant-numeric:normal;font-feature-settings:normal;text-align:start;writing-mode:lr-tb;text-anchor:start;fill:#ffffff;stroke-width:0.26458335"
         id="path893" />
      <path
         d="m 11.669226,284.60601 q -0.246788,0.2429 -0.443051,0.3595 -0.196264,0.11465 -0.433335,0.11465 -0.264276,0 -0.427506,-0.16906 -0.161286,-0.16906 -0.161286,-0.445 0,-0.41196 0.285652,-0.74425 0.285651,-0.33423 0.633485,-0.33423 0.180718,0 0.289537,0.0933 0.10882,0.0933 0.10882,0.24484 0,0.40224 -0.855011,0.65292 0.07773,0.37892 0.40613,0.37892 0.128252,0 0.244844,-0.068 0.116593,-0.07 0.351721,-0.30703 z m -1.01824,-0.35949 q 0.49746,-0.13991 0.49746,-0.51689 0,-0.18655 -0.136024,-0.18655 -0.128252,0 -0.244844,0.19626 -0.116592,0.19432 -0.116592,0.50718 z"
         style="font-style:normal;font-variant:normal;font-weight:bold;font-stretch:normal;font-size:3.97968602px;font-family:'Script MT Bold';-inkscape-font-specification:'Script MT Bold, Bold';font-variant-ligatures:normal;font-variant-caps:normal;font-variant-numeric:normal;font-feature-settings:normal;text-align:start;writing-mode:lr-tb;text-anchor:start;fill:#ffffff;stroke-width:0.26458335"
         id="path895" />
      <path
         d="m 13.414225,284.60601 q -0.0991,0.0874 -0.192377,0.12437 -0.09327,0.035 -0.147684,0.035 -0.139911,0 -0.277879,-0.10882 -0.279821,0.42362 -0.641258,0.42362 -0.225412,0 -0.365322,-0.16906 -0.139911,-0.16906 -0.139911,-0.44888 0,-0.44306 0.314799,-0.7598 0.3148,-0.31868 0.752021,-0.31868 0.165172,0 0.240957,0.0369 0.07773,0.035 0.09522,0.0836 0.01749,0.0486 0.01749,0.12242 0,0.36338 -0.198207,0.89193 0.0991,0.0913 0.207923,0.0913 0.130195,0 0.334232,-0.22736 z m -0.641258,-1.08625 q -0.02915,-0.0117 -0.08356,-0.0117 -0.252617,0 -0.396414,0.26428 -0.141854,0.26427 -0.141854,0.61794 0,0.19626 0.06218,0.30508 0.06218,0.10882 0.172945,0.10882 0.137968,0 0.299254,-0.25456 -0.182662,-0.2293 -0.182662,-0.49357 0,-0.31092 0.270106,-0.53633 z"
         style="font-style:normal;font-variant:normal;font-weight:bold;font-stretch:normal;font-size:3.97968602px;font-family:'Script MT Bold';-inkscape-font-specification:'Script MT Bold, Bold';font-variant-ligatures:normal;font-variant-caps:normal;font-variant-numeric:normal;font-feature-settings:normal;text-align:start;writing-mode:lr-tb;text-anchor:start;fill:#ffffff;stroke-width:0.26458335"
         id="path897" />
      <path
         d="m 15.170883,282.26251 q 0.410017,0 0.652918,0.20015 0.2429,0.1982 0.2429,0.53049 0,0.30703 -0.180718,0.49358 -0.178775,0.1846 -0.30897,0.1846 -0.04858,0 -0.110762,-0.0428 -0.06024,-0.0428 -0.06024,-0.0777 0,-0.0194 0.09133,-0.13991 0.213753,-0.26427 0.213753,-0.52466 0,-0.21959 -0.147684,-0.34784 -0.147684,-0.13019 -0.400301,-0.13019 -0.380868,0 -0.689838,0.23318 -0.308969,0.23124 -0.308969,0.50718 0,0.18266 0.167115,0.25067 0.06607,0.0292 0.06607,0.0797 0,0.0525 -0.14574,0.12243 -0.145741,0.07 -0.204037,0.07 -0.08744,0 -0.165172,-0.11465 -0.07773,-0.11659 -0.07773,-0.25262 0,-0.36532 0.392528,-0.70344 0.392528,-0.33811 0.973546,-0.33811 z m 0.365323,0.50523 q -0.128252,0.11465 -0.186548,0.26816 -0.0583,0.15157 -0.118535,0.63543 -0.06024,0.48192 -0.196264,0.75979 -0.134081,0.27788 -0.425562,0.46443 -0.289538,0.18461 -0.637372,0.18461 -0.246787,0 -0.402244,-0.12243 -0.153513,-0.12242 -0.153513,-0.31285 0,-0.0719 0.04469,-0.1166 0.04469,-0.0466 0.182661,-0.12436 0.137968,-0.0777 0.186548,-0.0777 0.03303,0 0.05635,0.0233 0.02332,0.0214 0.02332,0.0525 0,0.0194 -0.01943,0.14379 -0.01749,0.12437 -0.01749,0.14769 0,0.23124 0.19432,0.23124 0.219583,0 0.369209,-0.2565 0.149627,-0.25845 0.215696,-0.80449 0.06801,-0.54799 0.204037,-0.7734 0.136024,-0.22541 0.316742,-0.31868 0.182662,-0.0952 0.252617,-0.0952 0.04858,0 0.110763,0.0913 z"
         style="font-style:normal;font-variant:normal;font-weight:bold;font-stretch:normal;font-size:3.97968602px;font-family:'Script MT Bold';-inkscape-font-specification:'Script MT Bold, Bold';font-variant-ligatures:normal;font-variant-caps:normal;font-variant-numeric:normal;font-feature-settings:normal;text-align:start;writing-mode:lr-tb;text-anchor:start;fill:#ffffff;stroke-width:0.26458335"
         id="path899" />
    </g>
    <path
       sodipodi:type="star"
       style="opacity:1;fill:#ffffff;fill-opacity:1;stroke:none;stroke-width:1.33722997;stroke-linecap:round;stroke-linejoin:round;stroke-miterlimit:4;stroke-dasharray:none;stroke-dashoffset:52.91338348;stroke-opacity:1;paint-order:normal"
       id="path885"
       sodipodi:sides="3"
       sodipodi:cx="1.1419812"
       sodipodi:cy="294.35727"
       sodipodi:r1="1.2256292"
       sodipodi:r2="0.61281461"
       sodipodi:arg1="0"
       sodipodi:arg2="1.0471976"
       inkscape:flatsided="true"
       inkscape:rounded="0"
       inkscape:randomized="0"
       d="m 2.3676105,294.35727 -1.83844386,1.06143 0,-2.12286 z"
       inkscape:transform-center-y="-0.016036399"
       transform="matrix(-0.37390731,0.64762656,-0.64762656,-0.37390731,193.10636,404.20609)"
       inkscape:transform-center-x="-0.37337405" />
    <path
       style="fill:#0000ff;stroke:#0000ff;stroke-width:0.26458332px;stroke-linecap:butt;stroke-linejoin:miter;stroke-opacity:1;fill-opacity:1"
       d="m 1.5875073,294.08958 1e-7,1.5875 1.3748152,-0.79375 z"
       id="path904"
       inkscape:connector-curvature="0" />
  </g>
</svg>
